PathFileType	4	(X/Y/Z)	/Users/visionmauri/4_3_2_f_1_Sports2D/4_3_2_f_1_Sports2D_px_person00.trc
DataRate	CameraRate	NumFrames	NumMarkers	Units	OrigDataRate	OrigDataStartFrame	OrigNumFrames
30.0	30.0	13	22	m	30.0	45	360
Frame#	Time	Hip			RHip			RKnee			RAnkle			RBigToe			RSmallToe			RHeel			LHip			LKnee			LAnkle			LBigToe			LSmallToe			LHeel			Neck			Head			Nose			RShoulder			RElbow			RWrist			LShoulder			LElbow			LWrist			
		X1	Y1	Z1	X2	Y2	Z2	X3	Y3	Z3	X4	Y4	Z4	X5	Y5	Z5	X6	Y6	Z6	X7	Y7	Z7	X8	Y8	Z8	X9	Y9	Z9	X10	Y10	Z10	X11	Y11	Z11	X12	Y12	Z12	X13	Y13	Z13	X14	Y14	Z14	X15	Y15	Z15	X16	Y16	Z16	X17	Y17	Z17	X18	Y18	Z18	X19	Y19	Z19	X20	Y20	Z20	X21	Y21	Z21	X22	Y22	Z22
45	1.5041782729805016	486.47278667221985	843.7015219729685	0.0	545.8128530886106	842.7904915558515	0.0	581.2034298728246	1012.1978151551497	0.0	622.3864051753036	1203.3595142753218	0.0	617.6735978013104	1308.7786694839926	0.0	656.9062830695038	1298.8144114156082	0.0	623.7087993276299	1238.284808381674	0.0	428.74177706024693	852.3914163292551	0.0	452.55342962197676	1093.730760417702	0.0	477.5876142898471	1347.286177135968	0.0	443.1822679572899	1368.2504464642616	0.0	429.7451351067392	1381.9250245268556	0.0	489.6573684487074	1383.0466900149147	0.0	473.0893230007938	525.1281767204713	0.0	477.9811581179077	402.8350917340226	0.0	473.3461179143779	479.989516260155	0.0	573.9467202127324	555.0964478122349	0.0	657.09091859534	694.1538842740719	0.0	735.3536903421809	815.9110158732929	0.0	369.07277820363214	566.8569275398422	0.0	331.8499973182804	735.2385137337512	0.0	351.78596168004213	835.490467271808	0.0
46	1.5376044568245126	488.74168324416644	845.4499856175003	0.0	546.6912620498125	844.0897134906699	0.0	578.4355204486217	1011.2832754009431	0.0	616.9646150332946	1208.7858274807618	0.0	609.6904288942967	1311.2552117739237	0.0	652.9749939755953	1300.1304611062637	0.0	617.5267133658488	1244.0942132597238	0.0	429.61483079718704	852.8741690991159	0.0	453.6308226046374	1094.7052718801745	0.0	478.8195815936028	1347.9272688618096	0.0	443.16032132159484	1367.2624741974041	0.0	431.23958629131465	1382.1060863387197	0.0	490.1122538246522	1383.8919024668467	0.0	477.3678214305595	526.9321390943633	0.0	483.2178433650233	405.05160336995425	0.0	478.3841427407115	480.5139202192587	0.0	578.5781920103102	558.7824284448521	0.0	660.5010412544567	697.4066962956234	0.0	734.6652658264151	816.0874503561572	0.0	373.5941371330685	567.3775486955424	0.0	330.71142585824975	735.7003621660094	0.0	350.93047441402126	833.8418108947815	0.0
47	1.5710306406685237	490.95129195976034	845.891478405243	0.0	548.6410234652229	845.2939352417707	0.0	577.2585479099876	1014.0203765612284	0.0	611.7013096910795	1213.9806552237565	0.0	605.8038215299699	1311.3443687309107	0.0	649.9040831065174	1299.071236221395	0.0	611.8295719329996	1250.2837701580602	0.0	430.97904126836426	853.9190978673985	0.0	454.8963744558193	1093.8338286070925	0.0	479.38078065883025	1346.6065560488105	0.0	442.8002050575406	1367.360825849995	0.0	432.3955438637669	1383.0672012253845	0.0	489.7410954664932	1384.8013010626162	0.0	481.8636954676712	529.6262046010071	0.0	488.0205609977016	406.3481862449002	0.0	481.2003572168548	482.61210700929337	0.0	582.8436326058787	562.8916843787842	0.0	664.3279862688095	702.1385169436421	0.0	734.3662142284215	816.5908062642873	0.0	379.35148010406493	567.8954582340704	0.0	330.6642440881458	735.0702324653005	0.0	350.6478690247025	832.3640603703046	0.0
48	1.604456824512535	493.0498194757761	845.7519316164718	0.0	550.9498403409317	847.2006326713073	0.0	578.2551108773312	1017.6378881477201	0.0	610.0763108696877	1216.5497813347483	0.0	604.8002912784932	1309.8590497053945	0.0	648.2125958192222	1297.6362762359888	0.0	609.9072715836146	1257.1648596984476	0.0	432.9489550327131	854.9478564157951	0.0	455.9176955160913	1091.6969279534605	0.0	478.8486169409695	1344.1952431693985	0.0	442.8975865809099	1367.6696974765546	0.0	432.80918531205174	1383.556391353664	0.0	488.9974550300794	1384.826693638265	0.0	487.3765303791375	532.1634659816805	0.0	493.59684529585184	407.87947573140417	0.0	483.7699360784106	485.18145986520136	0.0	586.6733704463883	566.985837572976	0.0	668.6024042777999	707.2285701574749	0.0	734.5926325141951	818.006072194435	0.0	385.6076188621203	568.1397124396599	0.0	332.7377334499905	731.7634765959023	0.0	350.7353077861588	831.0160731187113	0.0
49	1.637883008356546	495.0781905378365	845.8784461870787	0.0	552.5899728526094	849.1592380688857	0.0	580.2214064043715	1016.636811363289	0.0	611.4520206932162	1217.243848379525	0.0	603.2957255403329	1306.2272229470998	0.0	648.2585054276263	1296.8450290095245	0.0	610.9039015041076	1264.2133741421321	0.0	435.5151205544814	855.4061089278492	0.0	456.48719626572546	1090.416616234641	0.0	478.0014024437631	1342.8962713535884	0.0	444.1911076317098	1367.435971605819	0.0	432.685684585844	1382.502233242627	0.0	488.249793325938	1383.6168722631096	0.0	493.93163355135283	533.568046186393	0.0	500.7897506604659	409.95548241488274	0.0	489.277391548641	485.504906389584	0.0	590.8082124334288	570.2025263738097	0.0	672.9844658183031	711.3506325685609	0.0	734.6591997023781	819.6717255268223	0.0	392.1680909409912	568.0376720432497	0.0	336.43507527899453	726.3651456508035	0.0	350.4615990631512	829.297576794331	0.0
50	1.6713091922005572	497.1301680377194	846.3126500267782	0.0	553.7826002441225	849.7929052428119	0.0	582.4646948732143	1012.8478517217577	0.0	612.9467173923929	1222.7620219961477	0.0	604.4871084993557	1302.3845298061487	0.0	650.3706910646043	1298.0243709060035	0.0	612.2803144448484	1272.6430668197618	0.0	438.56579802360426	855.109338755307	0.0	456.68683686404694	1090.1475884140484	0.0	477.6616133689603	1341.9167510232696	0.0	445.690455488287	1366.2815625964747	0.0	432.4071287521845	1379.8714842703712	0.0	487.8298211717753	1381.7874380848004	0.0	500.96711200329264	535.1689389138403	0.0	509.53473844687954	411.57199643377623	0.0	498.2845899494822	485.14398579792834	0.0	595.8810197537431	573.1236675563995	0.0	676.9356056802001	714.5709854072142	0.0	734.3497430587822	820.4079304111914	0.0	399.1931741775501	567.9286607723983	0.0	340.75678158803044	721.5827067683623	0.0	350.1500247018068	827.9622721115508	0.0
51	1.7047353760445683	499.638775595911	846.8755790499224	0.0	555.6042789012557	849.2823077873369	0.0	585.417897470984	1011.7586811684549	0.0	613.130417534099	1233.143889928867	0.0	610.6305748830628	1301.7821116257187	0.0	653.5194053137818	1301.5791495578833	0.0	613.0756251958337	1280.4463719080331	0.0	441.8360509725546	854.1246285372116	0.0	456.42574445615855	1089.0347854449594	0.0	477.4215530781706	1338.4018299989348	0.0	446.31900563585566	1364.2891061223831	0.0	432.22822647466495	1376.4591152558098	0.0	487.4050041931956	1378.7715889668038	0.0	508.2254883731169	538.144935521929	0.0	519.5435706388002	412.538058867262	0.0	510.2944784746352	487.48423951982113	0.0	601.8552202803473	576.3474468618821	0.0	679.8914857656606	717.0749602328601	0.0	734.0944932634777	820.1007971504573	0.0	406.19659439550804	568.1563123590918	0.0	345.0253890263855	719.0039080167522	0.0	350.2238034474359	827.9466470356373	0.0
52	1.7381615598885796	502.97837084031505	847.2396170909046	0.0	558.5217586339991	848.9604233862505	0.0	588.3969485477384	1013.1001457771105	0.0	612.202026114879	1238.7643225516917	0.0	614.6404047311788	1302.8006821837137	0.0	655.7366405808716	1303.448155427695	0.0	612.4924234196371	1283.0696515669356	0.0	445.1437978618433	853.0377242501294	0.0	455.29895692736403	1085.881865900688	0.0	475.9209477229353	1330.4935500540012	0.0	447.486575762105	1363.507881489274	0.0	432.37723650022235	1373.2359829577545	0.0	485.225248075186	1371.5110009397483	0.0	515.4248935321422	540.8966964322625	0.0	530.2615130381524	414.2176141532237	0.0	525.9162257282026	491.75351244587665	0.0	608.1342041304713	578.7941161452374	0.0	681.81277367159	718.5541086008694	0.0	733.4890981146007	819.8329513871885	0.0	412.79558886549256	568.6310993654133	0.0	348.7975372336187	718.0294993755759	0.0	350.71430977907215	828.4805783322496	0.0
53	1.7715877437325906	506.96281895846835	846.8276813162068	0.0	562.2524692137436	849.1289356650734	0.0	590.4937043167637	1014.4965575164861	0.0	611.3997151317242	1236.9807577904382	0.0	612.8406179325023	1301.618563044296	0.0	656.7342034791158	1300.4375457921005	0.0	610.599599991755	1283.2426863760616	0.0	448.553588397566	852.138934714939	0.0	453.05949875064937	1080.9431293613613	0.0	472.88147314419797	1317.1901303592576	0.0	450.2346427097355	1365.745042360285	0.0	432.1446650688959	1370.451256977045	0.0	481.272612680888	1357.2046499885082	0.0	522.0846644301674	541.3994062717427	0.0	540.5026292856164	417.3895778533428	0.0	543.116773691558	494.7626300260032	0.0	614.1461184814636	579.9241800515183	0.0	683.4756131088643	719.3198480406866	0.0	731.4830758050074	820.1915763762569	0.0	419.3068186204027	568.7756976229201	0.0	352.45744221294257	717.0800381484936	0.0	351.74661187748035	827.6985551380554	0.0
54	1.8050139275766017	511.1038989681369	845.4148683748115	0.0	566.6165122533191	848.6570539365833	0.0	592.6261549756281	1016.4496548708828	0.0	611.6615828877998	1234.503016081933	0.0	611.2615412187745	1299.8677753571872	0.0	657.5924720474878	1297.368599900534	0.0	609.2627307871848	1287.3245763786877	0.0	451.9698267126759	850.5017921258726	0.0	450.04711490547055	1074.7549433164052	0.0	469.63144739006316	1298.312691623719	0.0	452.6685655976251	1368.9931685688884	0.0	430.3927277796065	1367.6692900657672	0.0	478.82691990911326	1336.7967487379642	0.0	528.1101923795518	540.5309222352791	0.0	549.2772298767054	420.5586176007476	0.0	556.2042777000264	496.02560034388216	0.0	620.0057190883031	581.2063909335963	0.0	685.9853636561428	720.3269891652619	0.0	728.4003229530828	821.0108408652998	0.0	425.76539790486135	568.2349334456013	0.0	357.1972861404983	714.5011489536967	0.0	353.1187919589992	825.0931605415386	0.0
55	1.8384401114206128	514.9172218825239	843.651854304758	0.0	571.4332681219751	846.9194451817558	0.0	595.531141214385	1018.1591304018046	0.0	612.3306252154824	1233.3069620235533	0.0	611.8394628838026	1299.460352961872	0.0	657.3791430201265	1298.400630598006	0.0	609.1430464770299	1293.3242959268835	0.0	455.1404149460196	847.8849746066442	0.0	447.0926698034494	1067.6760776127562	0.0	467.47155344309135	1275.9885046604034	0.0	452.9458856100992	1369.500013605514	0.0	427.6429785029418	1363.82028273186	0.0	479.97688690074176	1314.1226519816453	0.0	533.5413298935911	540.3319045618642	0.0	556.5654731015386	422.06242933675236	0.0	562.6862313524435	497.0227177551291	0.0	625.8782609253641	583.4065300299209	0.0	689.5621908117769	722.0611100049996	0.0	725.6357032249986	821.9559908274418	0.0	431.74691431265245	567.5263454464592	0.0	363.101348854411	710.3436955540591	0.0	354.1575174763398	822.4408718215435	0.0
56	1.8718662952646241	518.2081334593411	842.0903439671899	0.0	575.6451558193285	844.8858412940607	0.0	597.7791581623446	1016.3395070521392	0.0	612.1323071369109	1230.0571332160673	0.0	609.3417615704959	1297.8205036772247	0.0	653.2784197192885	1299.637815122969	0.0	608.7528353392197	1295.4247273470578	0.0	458.2813124140679	845.7824775432027	0.0	444.8373557899497	1060.456552181414	0.0	466.77055826728235	1254.6746630912544	0.0	451.434580110892	1365.6981779988482	0.0	425.22654193504735	1357.6218912061033	0.0	482.9749135905064	1293.3520382974025	0.0	538.2091935134792	541.0647660571499	0.0	562.8684660638922	422.58447076346545	0.0	566.6397635484307	498.60092577302186	0.0	630.9555533696646	585.1936099460534	0.0	693.2572612732233	724.250559544446	0.0	723.8207349748282	822.4663461281339	0.0	437.2281192188544	567.1396741065246	0.0	368.49184386639513	707.0255101728978	0.0	354.4944817552549	821.273715449398	0.0
57	1.9052924791086352	521.0523284322405	840.0910723121075	0.0	577.9667959559512	843.1711886607048	0.0	598.1365694506012	1011.4486760707939	0.0	611.1944968711257	1225.990254093102	0.0	603.5093650529748	1295.2021887417668	0.0	646.4657649919507	1298.301184592242	0.0	607.7564620613996	1295.4904193713394	0.0	461.6690572713499	844.3554862756404	0.0	443.52297173288184	1053.9421387917505	0.0	467.2365097323404	1238.7000379111767	0.0	450.0822812695889	1358.046439830656	0.0	423.7601691401812	1348.7967795626073	0.0	485.236155651206	1277.965287143388	0.0	542.2351838675897	541.9684261997088	0.0	568.9757947489269	423.541016989191	0.0	572.533405785838	500.91176364023636	0.0	634.5886808945204	585.5948995220093	0.0	696.4409452731871	726.3721050494452	0.0	722.9589653969404	822.4633593653505	0.0	442.3604405252739	566.7792903222572	0.0	372.10950752893814	705.7784574908084	0.0	354.42841876147224	821.1028852536044	0.0
